<?xml version="1.0" encoding="iso-8859-1"?>
<!-- Generator: Adobe Illustrator 21.1.0, SVG Export Plug-In . SVG Version: 6.00 Build 0)  -->
<svg version="1.1" id="Layer_1" xmlns="http://www.w3.org/2000/svg" xmlns:xlink="http://www.w3.org/1999/xlink" x="0px" y="0px"
	 viewBox="0 0 24 24" enable-background="new 0 0 24 24" xml:space="preserve">
<g>
	<path fill="#303C42" d="M23.8252182,10.1206055l-7-6c-0.1865234-0.1611328-0.4638672-0.1611328-0.6503906,0l-2.2474375,1.9264526
		C13.4601049,2.6375732,10.5358496,0,7.0000224,0c-3.8598635,0-7,3.1401367-7,7
		c0,2.2148438,1.0405273,4.2797852,2.8032227,5.6005859L2.5317605,13.324707
		c-0.0576172,0.1533203-0.0361328,0.3251953,0.0571289,0.4599609C2.6826394,13.9194336,2.8359597,14,3.0000222,14h1.0000002v0.5
		c0,0.1328125,0.0527344,0.2597656,0.1464844,0.3535156L4.7929912,15.5l-0.6464844,0.6464844
		c-0.1953127,0.1953125-0.1953127,0.5117188,0,0.7070313L4.7929912,17.5l-0.6464844,0.6464844
		c-0.1953127,0.1953125-0.1953127,0.5117188,0,0.7070313L4.7929912,19.5l-0.6464844,0.6464844
		c-0.09375,0.09375-0.1464844,0.2207031-0.1464844,0.3535156v1c0,0.1518555,0.0688477,0.2954102,0.1874971,0.390625l2.5,2
		C6.778831,23.9633789,6.8896708,24,7.0000224,24s0.2211914-0.0366211,0.3124971-0.109375l2.4999995-2
		c0.1186552-0.0952148,0.1875029-0.2387695,0.1875029-0.390625V14h0.5v3.5c0,0.2763672,0.2236328,0.5,0.5,0.5h3.5
		c0.2763672,0,0.5-0.2236328,0.5-0.5V12h3.000001v5.5c0,0.2763672,0.2236328,0.5,0.5,0.5h3.5c0.2763672,0,0.5-0.2236328,0.5-0.5V11
		h1c0.2094727,0,0.3964844-0.1303711,0.46875-0.3266602C24.0415268,10.4770508,23.9843979,10.2563477,23.8252182,10.1206055z
		 M7.0000224,5c-0.5512695,0-1-0.4487305-1-1s0.4487305-1,1-1s0.9999995,0.4487305,0.9999995,1S7.5512919,5,7.0000224,5z"/>
	<path fill="#F3F3F3" d="M22.0000229,10c-0.2763672,0-0.5,0.2236328-0.5,0.5V17h-2.5v-5.5c0-0.2763672-0.2236328-0.5-0.5-0.5
		h-4.000001c-0.2763672,0-0.5,0.2236328-0.5,0.5V17h-2.5v-4.6554565c1.4921875-1.2556152,2.3928223-3.0675049,2.4814453-5.0275269
		l2.5185556-2.1583252L22.1484604,10H22.0000229z"/>
	<path fill="#FFCB29" d="M7.0000224,1c-3.308594,0-6,2.6914063-6,6c0,2.0126953,1.003418,3.8813477,2.6835938,4.9985352
		c0.1938477,0.1289063,0.2729492,0.3740234,0.1914063,0.5917969L3.7212136,13h0.7788088c0.2763672,0,0.5,0.2236328,0.5,0.5
		v0.7929688l0.8535156,0.8535156c0.1953125,0.1953125,0.1953125,0.5117188,0,0.7070313L5.2070537,16.5l0.6464844,0.6464844
		c0.1953125,0.1953125,0.1953125,0.5117188,0,0.7070313L5.2070537,18.5l0.6464844,0.6464844
		c0.1953125,0.1953125,0.1953125,0.5117188,0,0.7070313l-0.8535156,0.8535156v0.5527344l2,1.6000977l1.9999995-1.6000977V13.5
		c0-0.2763672,0.2236328-0.5,0.5-0.5h0.7788086l-0.1538086-0.409668c-0.081543-0.2177734-0.0024414-0.4628906,0.1914063-0.5917969
		C11.996604,10.8813477,13.0000219,9.0126953,13.0000219,7C13.0000219,3.6914063,10.3086157,1,7.0000224,1z M7.0000224,6
		c-1.1030273,0-2-0.8969727-2-2s0.8969727-2,2-2s1.9999995,0.8969727,1.9999995,2S8.1030493,6,7.0000224,6z"/>
	<path opacity="0.1" fill="#010101" d="M9.5286474,1.5664673C10.736228,2.6647949,11.5000219,4.2427979,11.5000219,6
		c0,2.0126953-1.003418,3.8813477-2.6835938,4.9985352c-0.1938477,0.1289063-0.2729492,0.3740234-0.1914063,0.5917969L8.7788305,12
		H8.0000219c-0.2763667,0-0.4999995,0.2236328-0.4999995,0.5v7.7597656l-1.874939,1.500061l1.374939,1.1000366l1.9999995-1.6000977
		V13.5c0-0.2763672,0.2236328-0.5,0.5-0.5h0.7788086l-0.1538086-0.409668
		c-0.081543-0.2177734-0.0024414-0.4628906,0.1914063-0.5917969C11.996604,10.8813477,13.0000219,9.0126953,13.0000219,7
		C13.0000219,4.5955811,11.5753393,2.5229492,9.5286474,1.5664673z"/>
	<linearGradient id="SVGID_1_" gradientUnits="userSpaceOnUse" x1="11.2443304" y1="10.0541534" x2="19.8451004" y2="18.6549225">
		<stop  offset="0" style="stop-color:#010101;stop-opacity:0.1"/>
		<stop  offset="1" style="stop-color:#010101;stop-opacity:0"/>
	</linearGradient>
	<path fill="url(#SVGID_1_)" d="M14.0000219,11.5c0-0.2763672,0.2236328-0.5,0.5-0.5h4.000001c0.2763672,0,0.5,0.2236328,0.5,0.5V17
		h2.5v-3.3803101l-6.8637705-6.8637695l-0.6547852,0.5610962c-0.088623,1.960022-0.9892578,3.7719116-2.4814453,5.0275269V17h2.5
		V11.5z"/>
	<linearGradient id="SVGID_2_" gradientUnits="userSpaceOnUse" x1="-1.1305777" y1="7.8735533" x2="22.0092258" y2="18.6638203">
		<stop  offset="0" style="stop-color:#FFFFFF;stop-opacity:0.2"/>
		<stop  offset="1" style="stop-color:#FFFFFF;stop-opacity:0"/>
	</linearGradient>
	<path fill="url(#SVGID_2_)" d="M23.8252182,10.1206055l-7-6c-0.1865234-0.1611328-0.4638672-0.1611328-0.6503906,0
		l-2.2474375,1.9264526C13.4601049,2.6375732,10.5358496,0,7.0000224,0c-3.8598635,0-7,3.1401367-7,7
		c0,2.2148438,1.0405273,4.2797852,2.8032227,5.6005859L2.5317605,13.324707
		c-0.0576172,0.1533203-0.0361328,0.3251953,0.0571289,0.4599609C2.6826394,13.9194336,2.8359597,14,3.0000222,14h1.0000002v0.5
		c0,0.1328125,0.0527344,0.2597656,0.1464844,0.3535156L4.7929912,15.5l-0.6464844,0.6464844
		c-0.1953127,0.1953125-0.1953127,0.5117188,0,0.7070313L4.7929912,17.5l-0.6464844,0.6464844
		c-0.1953127,0.1953125-0.1953127,0.5117188,0,0.7070313L4.7929912,19.5l-0.6464844,0.6464844
		c-0.09375,0.09375-0.1464844,0.2207031-0.1464844,0.3535156v1c0,0.1518555,0.0688477,0.2954102,0.1874971,0.390625l2.5,2
		C6.778831,23.9633789,6.8896708,24,7.0000224,24s0.2211914-0.0366211,0.3124971-0.109375l2.4999995-2
		c0.1186552-0.0952148,0.1875029-0.2387695,0.1875029-0.390625V14h0.5v3.5c0,0.2763672,0.2236328,0.5,0.5,0.5h3.5
		c0.2763672,0,0.5-0.2236328,0.5-0.5V12h3.000001v5.5c0,0.2763672,0.2236328,0.5,0.5,0.5h3.5c0.2763672,0,0.5-0.2236328,0.5-0.5V11
		h1c0.2094727,0,0.3964844-0.1303711,0.46875-0.3266602C24.0415268,10.4770508,23.9843979,10.2563477,23.8252182,10.1206055z
		 M7.0000224,5c-0.5512695,0-1-0.4487305-1-1s0.4487305-1,1-1s0.9999995,0.4487305,0.9999995,1S7.5512919,5,7.0000224,5z"/>
</g>
<g>
</g>
<g>
</g>
<g>
</g>
<g>
</g>
<g>
</g>
<g>
</g>
<g>
</g>
<g>
</g>
<g>
</g>
<g>
</g>
<g>
</g>
<g>
</g>
<g>
</g>
<g>
</g>
<g>
</g>
</svg>
