<?xml version="1.0" ?><svg viewBox="0 0 48 48" xmlns="http://www.w3.org/2000/svg" xmlns:xlink="http://www.w3.org/1999/xlink"><defs><style>.cls-1{fill:url(#linear-gradient);}.cls-2{fill:#d3ea77;}.cls-3{fill:#87a532;}</style><linearGradient gradientUnits="userSpaceOnUse" id="linear-gradient" x1="24.67" x2="24.67" y1="12.46" y2="36.37"><stop offset="0" stop-color="#a9db3b"/><stop offset="1" stop-color="#92b93b"/></linearGradient></defs><title/><g id="icons"><g data-name="Layer 3" id="Layer_3"><rect class="cls-1" height="23" rx="5" ry="5" width="37" x="6.17" y="12.5"/><circle class="cls-2" cx="24.67" cy="24" r="7.25"/><circle class="cls-2" cx="10.45" cy="17.06" r="2.08"/><circle class="cls-2" cx="38.71" cy="31.25" r="2.08"/><circle class="cls-2" cx="38.71" cy="17.06" r="2.08"/><circle class="cls-2" cx="10.45" cy="31.25" r="2.08"/><path class="cls-3" d="M25,19.34v.56a3.48,3.48,0,0,1,1,.23,2,2,0,0,1,.69.52,2.6,2.6,0,0,1,.36.55,1.28,1.28,0,0,1,.13.51.66.66,0,0,1-1.31.09,1.17,1.17,0,0,0-.82-.86v2.15c.42.12.77.23,1,.33a1.93,1.93,0,0,1,.68.42,1.88,1.88,0,0,1,.5.68,2.31,2.31,0,0,1-.11,2,2.13,2.13,0,0,1-.81.85,3,3,0,0,1-1.28.38V29a1.18,1.18,0,0,1-.06.44c0,.1-.13.14-.27.14a.3.3,0,0,1-.26-.11.7.7,0,0,1-.07-.36V27.74a3.49,3.49,0,0,1-1.06-.29,2.59,2.59,0,0,1-.76-.54,2.36,2.36,0,0,1-.45-.68,1.69,1.69,0,0,1-.14-.68.61.61,0,0,1,.19-.45.63.63,0,0,1,.49-.2A.64.64,0,0,1,23,25a.52.52,0,0,1,.22.3c.1.29.18.5.25.65a1.2,1.2,0,0,0,.31.42,1.4,1.4,0,0,0,.56.28V24.25a6.06,6.06,0,0,1-1.16-.43,1.83,1.83,0,0,1-.76-.67A1.92,1.92,0,0,1,22.12,22a2,2,0,0,1,.57-1.46,2.56,2.56,0,0,1,1.64-.67v-.54c0-.3.11-.44.32-.44S25,19.06,25,19.34Zm-.66,3.56v-2a1.73,1.73,0,0,0-.68.34.77.77,0,0,0-.25.64.81.81,0,0,0,.23.62A2,2,0,0,0,24.33,22.9ZM25,24.44v2.27a1.44,1.44,0,0,0,.8-.42,1.05,1.05,0,0,0,.29-.73.87.87,0,0,0-.28-.7A2.34,2.34,0,0,0,25,24.44Z"/></g></g></svg>