<?xml version="1.0" ?><svg id="Layer_1" style="enable-background:new 0 0 595.3 595.3;" version="1.1" viewBox="0 0 595.3 595.3" xml:space="preserve" xmlns="http://www.w3.org/2000/svg" xmlns:xlink="http://www.w3.org/1999/xlink"><style type="text/css">
	.st0{fill:#58595B;}
	.st1{fill:#3A1811;}
	.st2{fill:#726658;}
	.st3{fill:#0DB4E7;}
	.st4{fill:#009DD4;}
	.st5{fill:#009444;}
	.st6{fill:#FBB040;}
	.st7{fill:#EFF8F5;}
	.st8{fill:#D81F26;}
	.st9{fill:#BCBEC0;}
	.st10{fill:#735032;}
	.st11{fill:#1C75BC;}
	.st12{fill:#FFD128;}
	.st13{fill:#D1AE23;}
	.st14{fill:#F9ED32;}
	.st15{fill:#939598;}
	.st16{fill:#9B8579;}
	.st17{fill:#F1B279;}
	.st18{fill:#603913;}
	.st19{fill:#754C29;}
	.st20{fill:#8B5E3C;}
	.st21{fill:#C49A6C;}
	.st22{fill:#F7941E;}
	.st23{fill:#00AEEF;}
	.st24{fill:#FAF5AE;}
	.st25{fill:#F5F7D5;}
	.st26{fill:#7ABE90;}
	.st27{fill:#BFA863;}
	.st28{fill:#2B3990;}
	.st29{fill:#EF3824;}
	.st30{fill:#BE1E2D;}
	.st31{fill:#A67A44;}
	.st32{fill:#00A388;}
	.st33{fill:#ABE0F1;}
	.st34{fill:#594A42;}
</style><g><g><path class="st18" d="M510.2,483H88.4c-4.8,0-8.7-3.9-8.7-8.7v-282c0-4.8,3.9-8.7,8.7-8.7h421.7c4.8,0,8.7,3.9,8.7,8.7v282    C518.9,479.1,515,483,510.2,483z"/><path class="st1" d="M510.2,488H88.4c-7.6,0-13.7-6.2-13.7-13.7v-282c0-7.6,6.2-13.7,13.7-13.7h421.7c7.6,0,13.7,6.2,13.7,13.7    v282C523.9,481.8,517.7,488,510.2,488z M88.4,188.5c-2.1,0-3.7,1.7-3.7,3.7v282c0,2.1,1.7,3.7,3.7,3.7h421.7    c2.1,0,3.7-1.7,3.7-3.7v-282c0-2.1-1.7-3.7-3.7-3.7H88.4z"/></g><g><path class="st19" d="M79.7,302.4c60.8,36.9,136.9,58.9,219.6,58.9c82.7,0,158.8-22,219.6-58.9V199.6c0-8.9-6.6-16.1-14.8-16.1    H94.4c-8.1,0-14.8,7.2-14.8,16.1V302.4z"/><path class="st1" d="M299.3,366.3c-81.1,0-158-20.6-222.2-59.6l-2.4-1.5V199.6c0-11.6,8.9-21.1,19.8-21.1h409.7    c10.9,0,19.8,9.4,19.8,21.1v105.6l-2.4,1.5C457.3,345.7,380.4,366.3,299.3,366.3z M84.7,299.6c62.2,37.1,136.3,56.7,214.6,56.7    s152.4-19.6,214.6-56.7v-100c0-6.1-4.4-11.1-9.8-11.1H94.4c-5.4,0-9.8,5-9.8,11.1V299.6z"/></g><g><g><path class="st20" d="M357.5,183.5c-3.7,0-6.7-3-6.7-6.8V162c0,0,0-0.1,0-0.1c0-3.6-3.1-6.5-6.7-6.5h-89.5     c-3.6,0-6.7,2.9-6.7,6.5c0,0,0,0.1,0,0.1v14.7c0,3.7-3,6.8-6.7,6.8h-23.2c-3.7,0-6.7-3-6.7-6.8V162c0-24.4,16.4-43.5,37.3-43.5     h101.7c20.9,0,37.3,19.1,37.3,43.5v14.7c0,3.7-3,6.8-6.7,6.8H357.5z"/><path class="st1" d="M380.7,188.5h-23.2c-6.5,0-11.7-5.3-11.7-11.8v-14.8c0-0.8-0.8-1.5-1.7-1.5h-89.5c-0.9,0-1.7,0.7-1.7,1.5     v14.8c0,6.5-5.3,11.8-11.7,11.8h-23.2c-6.5,0-11.7-5.3-11.7-11.8V162c0-27.2,18.6-48.5,42.3-48.5h101.7     c23.7,0,42.3,21.3,42.3,48.5v14.7C392.4,183.2,387.1,188.5,380.7,188.5z M254.5,150.4h89.5c6.4,0,11.7,5.2,11.7,11.5v14.8     c0,1,0.8,1.8,1.7,1.8h23.2c1,0,1.7-0.8,1.7-1.8V162c0-21.6-14.2-38.5-32.3-38.5H248.5c-18.1,0-32.3,16.9-32.3,38.5v14.7     c0,1,0.8,1.8,1.7,1.8h23.2c1,0,1.7-0.8,1.7-1.8v-14.8C242.8,155.6,248.1,150.4,254.5,150.4z"/></g></g><g><path class="st21" d="M317.5,394.8h-36.4c-4.2,0-7.5-3.4-7.5-7.5v-52c0-4.2,3.4-7.5,7.5-7.5h36.4c4.2,0,7.5,3.4,7.5,7.5v52    C325,391.5,321.7,394.8,317.5,394.8z"/><path class="st1" d="M317.5,399.8h-36.4c-6.9,0-12.5-5.6-12.5-12.5v-52c0-6.9,5.6-12.5,12.5-12.5h36.4c6.9,0,12.5,5.6,12.5,12.5    v52C330,394.2,324.4,399.8,317.5,399.8z M281.1,332.7c-1.4,0-2.5,1.1-2.5,2.5v52c0,1.4,1.1,2.5,2.5,2.5h36.4    c1.4,0,2.5-1.1,2.5-2.5v-52c0-1.4-1.1-2.5-2.5-2.5H281.1z"/></g><g><path class="st1" d="M501.9,282.3c-1.4,0-2.5-1.1-2.5-2.5v-72.6c0-3.4-2.7-6.1-6.1-6.1h-28.6c-1.4,0-2.5-1.1-2.5-2.5    s1.1-2.5,2.5-2.5h28.6c6.1,0,11.1,5,11.1,11.1v72.6C504.4,281.2,503.3,282.3,501.9,282.3z"/></g><g><path class="st1" d="M495.3,469.6h-47.9c-1.4,0-2.5-1.1-2.5-2.5s1.1-2.5,2.5-2.5h47.9c2.2,0,4.1-1.8,4.1-4.1V339.1    c0-1.4,1.1-2.5,2.5-2.5s2.5,1.1,2.5,2.5v121.5C504.4,465.6,500.3,469.6,495.3,469.6z"/></g><g><path class="st1" d="M430.3,469.6H309.7c-1.4,0-2.5-1.1-2.5-2.5s1.1-2.5,2.5-2.5h120.6c1.4,0,2.5,1.1,2.5,2.5    S431.7,469.6,430.3,469.6z"/></g><g><path class="st1" d="M285.4,469.6H162.1c-1.4,0-2.5-1.1-2.5-2.5s1.1-2.5,2.5-2.5h123.2c1.4,0,2.5,1.1,2.5,2.5    S286.8,469.6,285.4,469.6z"/></g><g><path class="st1" d="M348.4,345.2c-1.3,0-2.3-0.9-2.5-2.2c-0.2-1.4,0.8-2.6,2.2-2.8c73.8-8.3,137-41.3,137.7-41.6    c1.2-0.6,2.7-0.2,3.4,1c0.6,1.2,0.2,2.7-1,3.4c-0.6,0.3-64.7,33.8-139.4,42.2C348.6,345.2,348.5,345.2,348.4,345.2z"/></g><g><path class="st1" d="M309.2,384.9H294c-1.4,0-2.5-1.1-2.5-2.5s1.1-2.5,2.5-2.5h15.2c0.3,0,0.5-0.2,0.5-0.5v-35.7    c0-1.4,1.1-2.5,2.5-2.5s2.5,1.1,2.5,2.5v35.7C314.7,382.5,312.2,384.9,309.2,384.9z"/></g><g><path class="st1" d="M373.8,173.2c-1.4,0-2.5-1.1-2.5-2.5v-12.8c0-14.2-11.5-25.7-25.7-25.7h-29.1c-1.4,0-2.5-1.1-2.5-2.5    s1.1-2.5,2.5-2.5h29.1c16.9,0,30.7,13.8,30.7,30.7v12.8C376.3,172.1,375.2,173.2,373.8,173.2z"/></g><g><path class="st1" d="M421.7,201.2H125.4c-1.4,0-2.5-1.1-2.5-2.5s1.1-2.5,2.5-2.5h296.4c1.4,0,2.5,1.1,2.5,2.5    S423.1,201.2,421.7,201.2z"/></g></g></svg>